<svg width="280" height="191" viewBox="0 0 280 191" fill="none" xmlns="http://www.w3.org/2000/svg">
<path d="M168.779 141.882C170.991 138.732 172.699 135.402 173.873 131.922C175.048 128.432 175.635 124.822 175.635 121.102C175.635 113.452 173.354 106.452 168.779 100.102C164.203 93.7417 158.016 88.4617 150.176 84.2617L132.16 97.4517V51.5617H194.825L176.81 64.7517C183.598 69.2417 189.02 74.5917 193.063 80.8117C197.106 87.0217 199.128 93.7617 199.128 101.022C199.128 109.722 196.355 117.602 190.81 124.672C185.264 131.742 177.916 137.482 168.779 141.872V141.882ZM85.1746 154.782L103.19 141.592C96.2654 137.102 90.8156 131.752 86.841 125.532C82.8663 119.312 80.8722 112.582 80.8722 105.322C80.8722 96.6217 83.6449 88.7417 89.1902 81.6717C94.7356 74.6017 102.152 68.8617 111.413 64.4717C109.2 67.6217 107.465 70.9517 106.222 74.4317C104.98 77.9117 104.365 81.5317 104.365 85.2517C104.365 92.9017 106.687 99.9017 111.317 106.252C115.947 112.612 122.121 117.892 129.824 122.092L147.84 108.902V154.782H85.1746Z" fill="url(#paint0_linear_1_194)"/>
<defs>
<linearGradient id="paint0_linear_1_194" x1="80.8722" y1="103.172" x2="199.128" y2="103.172" gradientUnits="userSpaceOnUse">
<stop stop-color="#0F0C29"/>
<stop offset="0.74" stop-color="#7C82B1"/>
<stop offset="1" stop-color="#7C82B1"/>
</linearGradient>
</defs>
</svg>
