<svg width="280" height="193" viewBox="0 0 280 193" fill="none" xmlns="http://www.w3.org/2000/svg">
<path d="M13.7676 15.0761C15.15 15.0761 16.2708 14.0422 16.2708 12.7669C16.2708 11.4915 15.15 10.4576 13.7676 10.4576C12.3851 10.4576 11.2644 11.4915 11.2644 12.7669C11.2644 14.0422 12.3851 15.0761 13.7676 15.0761Z" fill="#D8220F"/>
<path d="M21.6347 15.0761C23.0172 15.0761 24.1379 14.0422 24.1379 12.7669C24.1379 11.4915 23.0172 10.4576 21.6347 10.4576C20.2523 10.4576 19.1315 11.4915 19.1315 12.7669C19.1315 14.0422 20.2523 15.0761 21.6347 15.0761Z" fill="#E5BB35"/>
<path d="M29.5019 15.0761C30.8844 15.0761 32.0051 14.0422 32.0051 12.7669C32.0051 11.4915 30.8844 10.4576 29.5019 10.4576C28.1194 10.4576 26.9987 11.4915 26.9987 12.7669C26.9987 14.0422 28.1194 15.0761 29.5019 15.0761Z" fill="#017A01"/>
<path d="M268.557 23.8184H11.4432" stroke="white" stroke-miterlimit="10"/>
<path d="M260.675 40.5739H134.414C131.132 40.5739 128.471 43.0286 128.471 46.0568V63.3664C128.471 66.3946 131.132 68.8493 134.414 68.8493H260.675C263.958 68.8493 266.619 66.3946 266.619 63.3664V46.0568C266.619 43.0286 263.958 40.5739 260.675 40.5739Z" fill="#0F0C29"/>
<path d="M260.675 40.5739H134.414C131.132 40.5739 128.471 43.0286 128.471 46.0568V63.3664C128.471 66.3946 131.132 68.8493 134.414 68.8493H260.675C263.958 68.8493 266.619 66.3946 266.619 63.3664V46.0568C266.619 43.0286 263.958 40.5739 260.675 40.5739Z" fill="url(#paint0_linear_1_117)"/>
<mask id="mask0_1_117" style="mask-type:luminance" maskUnits="userSpaceOnUse" x="135" y="46" width="19" height="17">
<path d="M153.188 46.7165H135.859V62.7033H153.188V46.7165Z" fill="white"/>
</mask>
<g mask="url(#mask0_1_117)">
<path d="M153.188 54.7099C153.188 57.2172 151.937 59.4539 149.977 60.9186C148.489 62.037 146.591 62.7033 144.52 62.7033C142.45 62.7033 140.554 62.037 139.067 60.9219C137.107 59.4572 135.859 57.2205 135.859 54.7099C135.859 50.2959 139.735 46.7165 144.524 46.7165C149.312 46.7165 153.188 50.2926 153.188 54.7099Z" fill="#4F81FF"/>
<path d="M148.772 52.8493C148.772 55.0134 146.869 56.7685 144.524 56.7685C142.178 56.7685 140.275 55.0134 140.275 52.8493C140.275 50.6852 142.178 48.9301 144.524 48.9301C146.869 48.9301 148.772 50.6852 148.772 52.8493Z" fill="#F4F4F4"/>
<path d="M149.977 60.4237V60.9186C148.489 62.0369 146.591 62.7033 144.52 62.7033C142.45 62.7033 140.554 62.0369 139.067 60.9219V60.4237C139.067 58.4972 140.24 56.8213 141.967 55.98C142.728 55.604 143.597 55.3928 144.52 55.3928C145.443 55.3928 146.315 55.6073 147.077 55.98C147.56 56.2143 147.996 56.5145 148.379 56.8675C149.366 57.778 149.977 59.0349 149.977 60.4237Z" fill="#F4F4F4"/>
</g>
<path d="M167.353 53.298H177.566C178.692 53.298 179.604 54.1392 179.604 55.1784C179.604 56.2176 178.692 57.0588 177.566 57.0588H167.353C166.226 57.0588 165.314 56.2176 165.314 55.1784C165.314 54.1392 166.226 53.298 167.353 53.298Z" fill="#606060"/>
<path d="M192.542 53.298H249.243C250.369 53.298 251.281 54.1392 251.281 55.1784C251.281 56.2176 250.369 57.0588 249.243 57.0588H192.542C191.416 57.0588 190.504 56.2176 190.504 55.1784C190.504 54.1392 191.416 53.298 192.542 53.298Z" fill="#606060"/>
<path d="M260.675 77.8522H134.414C131.132 77.8522 128.471 80.307 128.471 83.3351V100.645C128.471 103.673 131.132 106.128 134.414 106.128H260.675C263.958 106.128 266.619 103.673 266.619 100.645V83.3351C266.619 80.307 263.958 77.8522 260.675 77.8522Z" fill="#0F0C29"/>
<path d="M260.675 77.8522H134.414C131.132 77.8522 128.471 80.307 128.471 83.3351V100.645C128.471 103.673 131.132 106.128 134.414 106.128H260.675C263.958 106.128 266.619 103.673 266.619 100.645V83.3351C266.619 80.307 263.958 77.8522 260.675 77.8522Z" fill="#4F81FF"/>
<mask id="mask1_1_117" style="mask-type:luminance" maskUnits="userSpaceOnUse" x="135" y="83" width="19" height="17">
<path d="M153.188 83.9949H135.859V99.9817H153.188V83.9949Z" fill="white"/>
</mask>
<g mask="url(#mask1_1_117)">
<path d="M153.188 91.9883C153.188 94.4955 151.937 96.7322 149.977 98.197C148.489 99.3153 146.591 99.9817 144.52 99.9817C142.45 99.9817 140.554 99.3153 139.067 98.2003C137.107 96.7355 135.859 94.4988 135.859 91.9883C135.859 87.5743 139.735 83.9949 144.524 83.9949C149.312 83.9949 153.188 87.571 153.188 91.9883Z" fill="#4F81FF"/>
<path d="M148.772 90.1277C148.772 92.2918 146.869 94.0469 144.524 94.0469C142.178 94.0469 140.275 92.2918 140.275 90.1277C140.275 87.9636 142.178 86.2085 144.524 86.2085C146.869 86.2085 148.772 87.9636 148.772 90.1277Z" fill="#F4F4F4"/>
<path d="M149.977 97.7021V98.197C148.489 99.3153 146.591 99.9817 144.52 99.9817C142.45 99.9817 140.554 99.3153 139.067 98.2003V97.7021C139.067 95.7755 140.24 94.0996 141.967 93.2584C142.728 92.8823 143.597 92.6712 144.52 92.6712C145.443 92.6712 146.315 92.8856 147.077 93.2584C147.56 93.4926 147.996 93.7928 148.379 94.1458C149.366 95.0563 149.977 96.3132 149.977 97.7021Z" fill="#F4F4F4"/>
</g>
<path d="M167.353 90.5763H177.566C178.692 90.5763 179.604 91.4176 179.604 92.4567C179.604 93.4959 178.692 94.3372 177.566 94.3372H167.353C166.226 94.3372 165.314 93.4959 165.314 92.4567C165.314 91.4176 166.226 90.5763 167.353 90.5763Z" fill="white"/>
<path d="M192.542 90.5763H249.243C250.369 90.5763 251.281 91.4176 251.281 92.4567C251.281 93.4959 250.369 94.3372 249.243 94.3372H192.542C191.416 94.3372 190.504 93.4959 190.504 92.4567C190.504 91.4176 191.416 90.5763 192.542 90.5763Z" fill="white"/>
<path d="M260.675 115.131H134.414C131.132 115.131 128.471 117.585 128.471 120.613V137.923C128.471 140.951 131.132 143.406 134.414 143.406H260.675C263.958 143.406 266.619 140.951 266.619 137.923V120.613C266.619 117.585 263.958 115.131 260.675 115.131Z" fill="#0F0C29"/>
<path d="M260.675 115.131H134.414C131.132 115.131 128.471 117.585 128.471 120.613V137.923C128.471 140.951 131.132 143.406 134.414 143.406H260.675C263.958 143.406 266.619 140.951 266.619 137.923V120.613C266.619 117.585 263.958 115.131 260.675 115.131Z" fill="url(#paint1_linear_1_117)"/>
<mask id="mask2_1_117" style="mask-type:luminance" maskUnits="userSpaceOnUse" x="135" y="121" width="19" height="17">
<path d="M153.188 121.273H135.859V137.26H153.188V121.273Z" fill="white"/>
</mask>
<g mask="url(#mask2_1_117)">
<path d="M153.188 129.267C153.188 131.774 151.937 134.011 149.977 135.475C148.489 136.594 146.591 137.26 144.52 137.26C142.45 137.26 140.554 136.594 139.067 135.479C137.107 134.014 135.859 131.777 135.859 129.267C135.859 124.853 139.735 121.273 144.524 121.273C149.312 121.273 153.188 124.849 153.188 129.267Z" fill="#4F81FF"/>
<path d="M148.772 127.406C148.772 129.57 146.869 131.325 144.524 131.325C142.178 131.325 140.275 129.57 140.275 127.406C140.275 125.242 142.178 123.487 144.524 123.487C146.869 123.487 148.772 125.242 148.772 127.406Z" fill="#F4F4F4"/>
<path d="M149.977 134.98V135.475C148.489 136.594 146.591 137.26 144.52 137.26C142.45 137.26 140.554 136.594 139.067 135.479V134.98C139.067 133.054 140.24 131.378 141.967 130.537C142.728 130.161 143.597 129.95 144.52 129.95C145.443 129.95 146.315 130.164 147.077 130.537C147.56 130.771 147.996 131.071 148.379 131.424C149.366 132.335 149.977 133.592 149.977 134.98Z" fill="#F4F4F4"/>
</g>
<path d="M167.353 127.855H177.566C178.692 127.855 179.604 128.696 179.604 129.735C179.604 130.774 178.692 131.616 177.566 131.616H167.353C166.226 131.616 165.314 130.774 165.314 129.735C165.314 128.696 166.226 127.855 167.353 127.855Z" fill="#606060"/>
<path d="M192.542 127.855H249.243C250.369 127.855 251.281 128.696 251.281 129.735C251.281 130.774 250.369 131.616 249.243 131.616H192.542C191.416 131.616 190.504 130.774 190.504 129.735C190.504 128.696 191.416 127.855 192.542 127.855Z" fill="#606060"/>
<path d="M260.675 152.409H134.414C131.132 152.409 128.471 154.864 128.471 157.892V175.201C128.471 178.23 131.132 180.684 134.414 180.684H260.675C263.958 180.684 266.619 178.23 266.619 175.201V157.892C266.619 154.864 263.958 152.409 260.675 152.409Z" fill="#0F0C29"/>
<path d="M260.675 152.409H134.414C131.132 152.409 128.471 154.864 128.471 157.892V175.201C128.471 178.23 131.132 180.684 134.414 180.684H260.675C263.958 180.684 266.619 178.23 266.619 175.201V157.892C266.619 154.864 263.958 152.409 260.675 152.409Z" fill="url(#paint2_linear_1_117)"/>
<mask id="mask3_1_117" style="mask-type:luminance" maskUnits="userSpaceOnUse" x="135" y="158" width="19" height="17">
<path d="M153.188 158.552H135.859V174.538H153.188V158.552Z" fill="white"/>
</mask>
<g mask="url(#mask3_1_117)">
<path d="M153.188 166.545C153.188 169.052 151.937 171.289 149.977 172.754C148.489 173.872 146.591 174.538 144.52 174.538C142.45 174.538 140.554 173.872 139.067 172.757C137.107 171.292 135.859 169.056 135.859 166.545C135.859 162.131 139.735 158.552 144.524 158.552C149.312 158.552 153.188 162.128 153.188 166.545Z" fill="#4F81FF"/>
<path d="M148.772 164.684C148.772 166.849 146.869 168.604 144.524 168.604C142.178 168.604 140.275 166.849 140.275 164.684C140.275 162.52 142.178 160.765 144.524 160.765C146.869 160.765 148.772 162.52 148.772 164.684Z" fill="#F4F4F4"/>
<path d="M149.977 172.259V172.754C148.489 173.872 146.591 174.538 144.52 174.538C142.45 174.538 140.554 173.872 139.067 172.757V172.259C139.067 170.332 140.24 168.656 141.967 167.815C142.728 167.439 143.597 167.228 144.52 167.228C145.443 167.228 146.315 167.442 147.077 167.815C147.56 168.049 147.996 168.35 148.379 168.703C149.366 169.613 149.977 170.87 149.977 172.259Z" fill="#F4F4F4"/>
</g>
<path d="M167.353 165.133H177.566C178.692 165.133 179.604 165.974 179.604 167.013C179.604 168.053 178.692 168.894 177.566 168.894H167.353C166.226 168.894 165.314 168.053 165.314 167.013C165.314 165.974 166.226 165.133 167.353 165.133Z" fill="#606060"/>
<path d="M192.542 165.133H249.243C250.369 165.133 251.281 165.974 251.281 167.013C251.281 168.053 250.369 168.894 249.243 168.894H192.542C191.416 168.894 190.504 168.053 190.504 167.013C190.504 165.974 191.416 165.133 192.542 165.133Z" fill="#606060"/>
<path d="M33.0958 75.7772H106.697C112.973 75.7772 118.033 80.4485 118.033 86.2349V171.342C118.033 177.131 112.969 181.799 106.697 181.799H33.0958C26.8199 181.799 21.7599 177.128 21.7599 171.342V86.2349C21.7599 80.4452 26.8235 75.7772 33.0958 75.7772Z" fill="#0F0C29"/>
<path d="M43.0478 88.2704C43.0478 90.1079 42.1395 91.7442 40.7126 92.8196C39.6291 93.618 38.2452 94.1359 36.7326 94.1359C35.2199 94.1359 33.8324 93.6576 32.7525 92.8196C31.3257 91.7409 30.4174 90.1046 30.4174 88.2704C30.4174 85.0374 33.2746 82.4015 36.7791 82.4015C40.2835 82.4015 43.0549 85.0374 43.0549 88.2704H43.0478Z" fill="#4F81FF"/>
<path d="M36.6861 89.7879C38.4063 89.7879 39.8008 88.5014 39.8008 86.9145C39.8008 85.3275 38.4063 84.0411 36.6861 84.0411C34.9659 84.0411 33.5714 85.3275 33.5714 86.9145C33.5714 88.5014 34.9659 89.7879 36.6861 89.7879Z" fill="#F4F4F4"/>
<path d="M40.6661 92.4633V92.8229C39.5826 93.6213 38.1987 94.1392 36.6861 94.1392C35.1734 94.1392 33.7859 93.6609 32.706 92.8229V92.4633C32.706 91.0646 33.5714 89.8275 34.8266 89.1908C35.388 88.9104 36.0388 88.752 36.6861 88.752C37.3333 88.752 37.9842 88.9104 38.5456 89.1908C38.8925 89.3491 39.2393 89.5899 39.4968 89.8308C40.2335 90.5104 40.6661 91.4275 40.6661 92.4666V92.4633Z" fill="#F4F4F4"/>
<path d="M30.1957 100.645H109.64" stroke="white" stroke-width="0.75" stroke-miterlimit="10"/>
<path d="M88.5201 87.7524H51.1796V88.7916H88.5201V87.7524Z" fill="#606060"/>
<path d="M43.0478 113.141C43.0478 114.979 42.1395 116.615 40.7126 117.691C39.6291 118.529 38.2452 119.007 36.7326 119.007C35.2199 119.007 33.8324 118.529 32.7525 117.691C31.3257 116.612 30.4174 114.976 30.4174 113.141C30.4174 109.908 33.2746 107.272 36.7791 107.272C40.2835 107.272 43.0549 109.908 43.0549 113.141H43.0478Z" fill="#4F81FF"/>
<path d="M36.6861 114.656C38.4063 114.656 39.8008 113.369 39.8008 111.782C39.8008 110.195 38.4063 108.909 36.6861 108.909C34.9659 108.909 33.5714 110.195 33.5714 111.782C33.5714 113.369 34.9659 114.656 36.6861 114.656Z" fill="#F4F4F4"/>
<path d="M40.6661 117.331V117.691C39.5826 118.528 38.1987 119.007 36.6861 119.007C35.1734 119.007 33.7859 118.528 32.706 117.691V117.331C32.706 115.932 33.5714 114.695 34.8266 114.058C35.388 113.778 36.0388 113.62 36.6861 113.62C37.3333 113.62 37.9842 113.778 38.5456 114.058C38.8925 114.217 39.2393 114.458 39.4968 114.698C40.2335 115.378 40.6661 116.335 40.6661 117.334V117.331Z" fill="#F4F4F4"/>
<path d="M30.1957 125.555H109.64" stroke="white" stroke-width="0.75" stroke-miterlimit="10"/>
<path d="M88.5201 112.62H51.1796V113.659H88.5201V112.62Z" fill="#606060"/>
<path d="M43.0478 138.369C43.0478 140.206 42.1395 141.842 40.7126 142.918C39.6291 143.756 38.2452 144.234 36.7326 144.234C35.2199 144.234 33.8324 143.756 32.7525 142.918C31.3257 141.839 30.4174 140.203 30.4174 138.369C30.4174 135.136 33.2746 132.5 36.7791 132.5C40.2835 132.5 43.0549 135.136 43.0549 138.369H43.0478Z" fill="#4F81FF"/>
<path d="M36.6861 139.886C38.4063 139.886 39.8008 138.6 39.8008 137.013C39.8008 135.426 38.4063 134.139 36.6861 134.139C34.9659 134.139 33.5714 135.426 33.5714 137.013C33.5714 138.6 34.9659 139.886 36.6861 139.886Z" fill="#F4F4F4"/>
<path d="M40.6661 142.562V142.921C39.5826 143.759 38.1987 144.237 36.6861 144.237C35.1734 144.237 33.7859 143.759 32.706 142.921V142.562C32.706 141.163 33.5714 139.926 34.8266 139.329C35.388 139.048 36.0388 138.89 36.6861 138.89C37.3333 138.89 37.9842 139.048 38.5456 139.329C38.8925 139.487 39.2393 139.728 39.4968 139.969C40.2335 140.648 40.6661 141.565 40.6661 142.565V142.562Z" fill="#F4F4F4"/>
<path d="M30.1957 150.783H109.64" stroke="white" stroke-width="0.75" stroke-miterlimit="10"/>
<path d="M88.5201 137.89H51.1796V138.929H88.5201V137.89Z" fill="#606060"/>
<path d="M43.0478 162.24C43.0478 164.077 42.1395 165.714 40.7126 166.789C39.6291 167.627 38.2452 168.105 36.7326 168.105C35.2199 168.105 33.8324 167.627 32.7525 166.789C31.3257 165.71 30.4174 164.074 30.4174 162.24C30.4174 159.007 33.2746 156.371 36.7791 156.371C40.2835 156.371 43.0549 159.007 43.0549 162.24H43.0478Z" fill="#4F81FF"/>
<path d="M36.6861 163.757C38.4063 163.757 39.8008 162.471 39.8008 160.884C39.8008 159.297 38.4063 158.011 36.6861 158.011C34.9659 158.011 33.5714 159.297 33.5714 160.884C33.5714 162.471 34.9659 163.757 36.6861 163.757Z" fill="#F4F4F4"/>
<path d="M40.6661 166.43V166.789C39.5826 167.627 38.1987 168.105 36.6861 168.105C35.1734 168.105 33.7859 167.627 32.706 166.789V166.43C32.706 165.031 33.5714 163.794 34.8266 163.197C35.388 162.916 36.0388 162.758 36.6861 162.758C37.3333 162.758 37.9842 162.916 38.5456 163.197C38.8925 163.355 39.2393 163.596 39.4968 163.837C40.2335 164.516 40.6661 165.433 40.6661 166.433V166.43Z" fill="#F4F4F4"/>
<path d="M30.1957 174.654H109.64" stroke="white" stroke-width="0.75" stroke-miterlimit="10"/>
<path d="M88.5201 161.722H51.1796V162.761H88.5201V161.722Z" fill="#606060"/>
<path d="M19.4319 40.9895H115.007C119.123 40.9895 122.46 44.2192 122.46 48.2011V59.9883C122.46 63.9701 119.123 67.1998 115.007 67.1998H19.4319C15.316 67.1998 11.9796 63.9701 11.9796 59.9883V48.2011C11.9796 44.2192 15.316 40.9895 19.4319 40.9895Z" fill="#0F0C29"/>
<path d="M19.4319 40.9895H115.007C119.123 40.9895 122.46 44.2192 122.46 48.2011V59.9883C122.46 63.9701 119.123 67.1998 115.007 67.1998H19.4319C15.316 67.1998 11.9796 63.9701 11.9796 59.9883V48.2011C11.9796 44.2192 15.316 40.9895 19.4319 40.9895Z" fill="url(#paint3_linear_1_117)"/>
<path d="M110.248 50.3817H23.7803V52.0312H110.248V50.3817Z" fill="#606060"/>
<path d="M76.4118 56.9796H23.7803V57.8044H76.4118V56.9796Z" fill="#606060"/>
<defs>
<linearGradient id="paint0_linear_1_117" x1="-4.79898" y1="55.6667" x2="399.114" y2="53.4262" gradientUnits="userSpaceOnUse">
<stop stop-color="#4F81FF"/>
<stop offset="0.11" stop-color="#4F81FF" stop-opacity="0.79"/>
<stop offset="0.24" stop-color="#4F81FF" stop-opacity="0.55"/>
<stop offset="0.37" stop-color="#4F81FF" stop-opacity="0.36"/>
<stop offset="0.5" stop-color="#4F81FF" stop-opacity="0.2"/>
<stop offset="0.61" stop-color="#4F81FF" stop-opacity="0.09"/>
<stop offset="0.7" stop-color="#4F81FF" stop-opacity="0.02"/>
<stop offset="0.78" stop-color="#4F81FF" stop-opacity="0"/>
</linearGradient>
<linearGradient id="paint1_linear_1_117" x1="-4.79898" y1="130.223" x2="399.114" y2="127.983" gradientUnits="userSpaceOnUse">
<stop stop-color="#4F81FF"/>
<stop offset="0.11" stop-color="#4F81FF" stop-opacity="0.79"/>
<stop offset="0.24" stop-color="#4F81FF" stop-opacity="0.55"/>
<stop offset="0.37" stop-color="#4F81FF" stop-opacity="0.36"/>
<stop offset="0.5" stop-color="#4F81FF" stop-opacity="0.2"/>
<stop offset="0.61" stop-color="#4F81FF" stop-opacity="0.09"/>
<stop offset="0.7" stop-color="#4F81FF" stop-opacity="0.02"/>
<stop offset="0.78" stop-color="#4F81FF" stop-opacity="0"/>
</linearGradient>
<linearGradient id="paint2_linear_1_117" x1="-4.79898" y1="167.502" x2="399.114" y2="165.261" gradientUnits="userSpaceOnUse">
<stop stop-color="#4F81FF"/>
<stop offset="0.11" stop-color="#4F81FF" stop-opacity="0.79"/>
<stop offset="0.24" stop-color="#4F81FF" stop-opacity="0.55"/>
<stop offset="0.37" stop-color="#4F81FF" stop-opacity="0.36"/>
<stop offset="0.5" stop-color="#4F81FF" stop-opacity="0.2"/>
<stop offset="0.61" stop-color="#4F81FF" stop-opacity="0.09"/>
<stop offset="0.7" stop-color="#4F81FF" stop-opacity="0.02"/>
<stop offset="0.78" stop-color="#4F81FF" stop-opacity="0"/>
</linearGradient>
<linearGradient id="paint3_linear_1_117" x1="-94.5849" y1="54.8584" x2="228.404" y2="53.0676" gradientUnits="userSpaceOnUse">
<stop stop-color="#4F81FF"/>
<stop offset="0.11" stop-color="#4F81FF" stop-opacity="0.79"/>
<stop offset="0.24" stop-color="#4F81FF" stop-opacity="0.55"/>
<stop offset="0.37" stop-color="#4F81FF" stop-opacity="0.36"/>
<stop offset="0.5" stop-color="#4F81FF" stop-opacity="0.2"/>
<stop offset="0.61" stop-color="#4F81FF" stop-opacity="0.09"/>
<stop offset="0.7" stop-color="#4F81FF" stop-opacity="0.02"/>
<stop offset="0.78" stop-color="#4F81FF" stop-opacity="0"/>
</linearGradient>
</defs>
</svg>
